<svg width="270" height="35" viewBox="0 0 270 35" fill="none" xmlns="http://www.w3.org/2000/svg">
<path fill-rule="evenodd" clip-rule="evenodd" d="M246.932 0C256.318 0 263.928 7.61116 263.928 17V18C263.928 18.2411 263.923 18.4811 263.913 18.7198C263.806 24.3592 264.143 28.014 264.924 29.6849C265.65 31.2362 267.189 32.7355 269.543 34.1829L269.902 34.3997C269.997 34.456 270.028 34.5786 269.972 34.6736C269.94 34.7285 269.883 34.7646 269.819 34.7708C264.845 35.2547 260.761 34.0842 257.569 31.2594C254.658 33.5994 250.959 35 246.932 35H16.9953C7.60907 35 0 27.3888 0 18V17C0 7.61116 7.60907 0 16.9953 0H246.932Z" fill="#313131"/>
</svg>
