<svg width="82" height="63" viewBox="0 0 82 63" fill="none" xmlns="http://www.w3.org/2000/svg">
<rect x="-16" y="0.5" width="98" height="62" rx="15" fill="#CCE4F9"/>
<rect x="-15.5" y="1" width="97" height="61" rx="14.5" stroke="white" stroke-opacity="0.3"/>
<path fill-rule="evenodd" clip-rule="evenodd" d="M41.5 12C45.9183 12 49.5 15.5817 49.5 20C49.5 24.4183 45.9183 28 41.5 28H3.18956C1.49493 28 -0.0617943 27.4111 -1.28617 26.4273C-2.62586 27.6054 -4.33856 28.0933 -6.42413 27.891C-6.4508 27.8884 -6.47462 27.8733 -6.48827 27.8503C-6.50717 27.8185 -6.50251 27.7792 -6.47945 27.7527L-6.45879 27.7356L-6.30791 27.6448C-5.31907 27.0384 -4.67235 26.4103 -4.36776 25.7605C-4.04242 25.0664 -3.90035 23.5551 -3.94156 21.2267C-3.94743 21.1111 -3.95025 20.9951 -3.95025 20.8784V20C-3.95025 15.5817 -0.368523 12 4.04976 12H41.5Z" fill="white"/>
<path fill-rule="evenodd" clip-rule="evenodd" d="M24.5 34C20.0817 34 16.5 37.5817 16.5 42C16.5 46.4183 20.0817 50 24.5 50H62.8104C64.5051 50 66.0618 49.4111 67.2862 48.4273C68.6259 49.6054 70.3386 50.0933 72.4241 49.891C72.4508 49.8884 72.4746 49.8733 72.4883 49.8503C72.5072 49.8185 72.5025 49.7792 72.4795 49.7527L72.4588 49.7356L72.3079 49.6448C71.3191 49.0384 70.6724 48.4103 70.3678 47.7605C70.0424 47.0664 69.9004 45.5551 69.9416 43.2267C69.9474 43.1111 69.9502 42.9951 69.9502 42.8784V42C69.9502 37.5817 66.3685 34 61.9502 34H24.5Z" fill="#E1FEC6"/>
</svg>
