<svg width="98" height="62" viewBox="0 0 98 62" fill="none" xmlns="http://www.w3.org/2000/svg">
<rect width="98" height="62" rx="15" fill="white"/>
<rect x="0.5" y="0.5" width="97" height="61" rx="14.5" stroke="white" stroke-opacity="0.3"/>
<path fill-rule="evenodd" clip-rule="evenodd" d="M57.5 12C61.9183 12 65.5 15.5817 65.5 20C65.5 24.4183 61.9183 28 57.5 28H19.1896C17.4949 28 15.9382 27.4111 14.7138 26.4273C13.3741 27.6054 11.6614 28.0933 9.57587 27.891C9.5492 27.8884 9.52538 27.8733 9.51173 27.8503C9.49283 27.8185 9.49749 27.7792 9.52055 27.7527L9.54121 27.7356L9.69209 27.6448C10.6809 27.0384 11.3276 26.4103 11.6322 25.7605C11.9576 25.0664 12.0996 23.5551 12.0584 21.2267C12.0526 21.1111 12.0498 20.9951 12.0498 20.8784V20C12.0498 15.5817 15.6315 12 20.0498 12H57.5Z" fill="#D4DDE6"/>
<path fill-rule="evenodd" clip-rule="evenodd" d="M40.5 34C36.0817 34 32.5 37.5817 32.5 42C32.5 46.4183 36.0817 50 40.5 50H78.8104C80.5051 50 82.0618 49.4111 83.2862 48.4273C84.6259 49.6054 86.3386 50.0933 88.4241 49.891C88.4508 49.8884 88.4746 49.8733 88.4883 49.8503C88.5072 49.8185 88.5025 49.7792 88.4795 49.7527L88.4588 49.7356L88.3079 49.6448C87.3191 49.0384 86.6724 48.4103 86.3678 47.7605C86.0424 47.0664 85.9004 45.5551 85.9416 43.2267C85.9474 43.1111 85.9502 42.9951 85.9502 42.8784V42C85.9502 37.5817 82.3685 34 77.9502 34H40.5Z" fill="#057AFE"/>
</svg>
