<svg width="15" height="9" viewBox="0 0 15 9" fill="none" xmlns="http://www.w3.org/2000/svg">
<path fill-rule="evenodd" clip-rule="evenodd" d="M13.6336 0.659777L7.1336 7.65978L7.07835 7.73112C6.95066 7.93085 6.9799 8.19938 7.15978 8.3664C7.36213 8.5543 7.6785 8.54258 7.8664 8.34023L14.3664 1.34023L14.4216 1.26889C14.5493 1.06915 14.5201 0.800629 14.3402 0.633605C14.1379 0.445704 13.8215 0.457421 13.6336 0.659777ZM10.1352 0.65806L3.93573 7.27188L1.36215 4.56839L1.29435 4.50884C1.10286 4.36909 0.833042 4.38174 0.655256 4.55098C0.455247 4.74138 0.447456 5.05787 0.637853 5.25787L3.57639 8.34475L3.64702 8.40636C3.84667 8.55 4.12866 8.52828 4.30333 8.34194L10.8648 1.34194L10.9204 1.27086C11.049 1.07173 11.021 0.803073 10.8419 0.635207C10.6405 0.446357 10.3241 0.456589 10.1352 0.65806Z" fill="#8E8E93"/>
</svg>
