<svg width="54" height="47" viewBox="0 0 54 47" fill="none" xmlns="http://www.w3.org/2000/svg">
<path d="M27 54C41.9117 54 54 41.9117 54 27C54 12.0883 41.9117 0 27 0C12.0883 0 0 12.0883 0 27C0 41.9117 12.0883 54 27 54Z" fill="url(#paint0_linear_0_4079)"/>
<path d="M9.46821 28.1503C12.6396 26.4172 16.1797 24.9707 19.4874 23.5168C25.178 21.1355 30.8912 18.7954 36.662 16.6169C37.7848 16.2457 39.8022 15.8827 40 17.5335C39.8916 19.8701 39.446 22.1931 39.1404 24.5162C38.3647 29.6247 37.468 34.7157 36.5937 39.8074C36.2924 41.5034 34.1509 42.3814 32.7807 41.296C29.4877 39.0892 26.1693 36.9039 22.9184 34.6459C21.8534 33.5724 22.8409 32.0306 23.792 31.264C26.5043 28.6122 29.3806 26.3592 31.9511 23.5703C32.6445 21.9091 30.5958 23.3091 29.92 23.7381C26.2069 26.2766 22.5847 28.9702 18.67 31.2012C16.6704 32.2933 14.3397 31.3601 12.341 30.7507C10.5489 30.0145 7.9228 29.2729 9.46803 28.1505L9.46821 28.1503Z" fill="white"/>
<defs>
<linearGradient id="paint0_linear_0_4079" x1="20.2531" y1="2.2518" x2="6.75315" y2="33.75" gradientUnits="userSpaceOnUse">
<stop stop-color="#424D58"/>
<stop offset="1" stop-color="#272A2F"/>
</linearGradient>
</defs>
</svg>
