<svg width="54" height="47" viewBox="0 0 54 47" fill="none" xmlns="http://www.w3.org/2000/svg">
<path d="M27 54C41.9117 54 54 41.9117 54 27C54 12.0883 41.9117 0 27 0C12.0883 0 0 12.0883 0 27C0 41.9117 12.0883 54 27 54Z" fill="url(#paint0_linear_0_4093)"/>
<path d="M21.8427 38.4381C20.9581 38.4381 21.1085 38.11 20.8034 37.2824L18.2023 28.8723L38.2247 17.2021" fill="#D2D8DD"/>
<path d="M21.8427 38.4383C22.5046 38.4383 22.797 38.139 23.1665 37.7838L26.6966 34.3897L22.2932 31.7642" fill="#B2BDC3"/>
<path d="M22.3307 31.7989L33.1237 39.9196C34.3555 40.6117 35.2442 40.2533 35.5511 38.7553L39.9444 17.6715C40.3941 15.8351 39.257 15.0018 38.0786 15.5466L12.281 25.677C10.5201 26.3964 10.5306 27.3969 11.9601 27.8426L18.5803 29.947L33.9069 20.0999C34.6304 19.653 35.2946 19.893 34.7496 20.3858" fill="url(#paint1_linear_0_4093)"/>
<defs>
<linearGradient id="paint0_linear_0_4093" x1="20.2531" y1="2.2518" x2="6.75315" y2="33.75" gradientUnits="userSpaceOnUse">
<stop stop-color="#424D58"/>
<stop offset="1" stop-color="#272A2F"/>
</linearGradient>
<linearGradient id="paint1_linear_0_4093" x1="22.5876" y1="27.9682" x2="26.7814" y2="41.3055" gradientUnits="userSpaceOnUse">
<stop stop-color="#FEFFFE"/>
<stop offset="1" stop-color="white"/>
</linearGradient>
</defs>
</svg>
