<svg width="31" height="42" viewBox="0 0 31 42" fill="none" xmlns="http://www.w3.org/2000/svg">
<path fill-rule="evenodd" clip-rule="evenodd" d="M19 10C21.7614 10 24 7.76142 24 5C24 2.23858 21.7614 0 19 0C16.2386 0 14 2.23858 14 5C14 7.76142 16.2386 10 19 10Z" fill="#EF8200"/>
<path fill-rule="evenodd" clip-rule="evenodd" d="M19 26C21.7614 26 24 23.7614 24 21C24 18.2386 21.7614 16 19 16C16.2386 16 14 18.2386 14 21C14 23.7614 16.2386 26 19 26Z" fill="#D23213"/>
<path fill-rule="evenodd" clip-rule="evenodd" d="M5 18C7.76142 18 10 15.7614 10 13C10 10.2386 7.76142 8 5 8C2.23858 8 0 10.2386 0 13C0 15.7614 2.23858 18 5 18Z" fill="#EB6BA3"/>
<path fill-rule="evenodd" clip-rule="evenodd" d="M33 18C35.7614 18 38 15.7614 38 13C38 10.2386 35.7614 8 33 8C30.2386 8 28 10.2386 28 13C28 15.7614 30.2386 18 33 18Z" fill="#ECB403"/>
<path fill-rule="evenodd" clip-rule="evenodd" d="M33 34C35.7614 34 38 31.7614 38 29C38 26.2386 35.7614 24 33 24C30.2386 24 28 26.2386 28 29C28 31.7614 30.2386 34 33 34Z" fill="#70BB23"/>
<path fill-rule="evenodd" clip-rule="evenodd" d="M5 34C7.76142 34 10 31.7614 10 29C10 26.2386 7.76142 24 5 24C2.23858 24 0 26.2386 0 29C0 31.7614 2.23858 34 5 34Z" fill="#9471EE"/>
<path fill-rule="evenodd" clip-rule="evenodd" d="M19 42C21.7614 42 24 39.7614 24 37C24 34.2386 21.7614 32 19 32C16.2386 32 14 34.2386 14 37C14 39.7614 16.2386 42 19 42Z" fill="#5395FA"/>
</svg>
